<svg xmlns="http://www.w3.org/2000/svg" viewBox="0 0 200 200" width="100%" height="100%">
  <defs>
    <filter id="shadow" x="-10%" y="-10%" width="120%" height="120%">
      <feDropShadow dx="0" dy="2" stdDeviation="2" flood-opacity="0.1"/>
    </filter>
  </defs>
  <circle cx="100" cy="100" r="95" fill="#E8F5E9" />
  
  <!-- Eppendorf Tube -->
  <path d="M80 120 L85 170 Q100 180 115 170 L120 120 Z" fill="#FFFFFF" stroke="#333333" stroke-width="3" filter="url(#shadow)"/>
  <rect x="75" y="110" width="50" height="10" fill="#E0E0E0" stroke="#333333" stroke-width="2"/>

  <path d="M82 150 L118 150 L115 170 Q100 180 85 170 Z" fill="{white}" opacity="0.8"/>

  <!-- Pipette -->
  <path d="M100 20 L115 20 L110 50 L105 80 L95 80 L90 50 Z" fill="#E0E0E0" stroke="#333333" stroke-width="2"/>
  <rect x="95" y="10" width="10" height="10" fill="#333333"/>

  <path d="M100 90 Q105 105 100 110 Q95 105 100 90 Z" fill="#FFCA28" stroke="#333333" stroke-width="1.5"/>
  <text x="100" y="160" font-family="sans-serif" font-size="14" font-weight="bold" fill="#333333" text-anchor="middle">Nano</text>

</svg>